<svg width="834" height="214" viewBox="0 0 834 214" fill="none" xmlns="http://www.w3.org/2000/svg">
<g clip-path="url(#clip0_54_1079)">
<g filter="url(#filter0_d_54_1079)">
<path d="M-156.947 121.284L-88.0033 -95.2491C-86.7036 -99.3311 -82.9483 -102.132 -78.6651 -102.213L1150.39 -125.626C1158.55 -125.782 1163.45 -116.609 1158.78 -109.908L983.357 141.649C980.801 145.315 976.124 146.839 971.899 145.385L778.224 78.6953C774.805 77.518 771.017 78.2784 768.317 80.6839L671.44 166.993C669.807 168.449 667.74 169.328 665.559 169.497L468.195 184.748C466.08 184.912 463.967 184.398 462.163 183.282L392.943 140.455C389.681 138.436 385.551 138.462 382.314 140.521L315.79 182.837C313.608 184.225 310.973 184.713 308.439 184.2L133.106 148.701C130.403 148.153 128.045 146.513 126.592 144.168L96.8664 96.2175C94.6992 92.7215 90.6124 90.9091 86.5663 91.6498L-145.618 134.155C-153.041 135.514 -159.237 128.475 -156.947 121.284Z" fill="#FFD63C"/>
<path d="M-156.947 121.284L-88.0033 -95.2491C-86.7036 -99.3311 -82.9483 -102.132 -78.6651 -102.213L1150.39 -125.626C1158.55 -125.782 1163.45 -116.609 1158.78 -109.908L983.357 141.649C980.801 145.315 976.124 146.839 971.899 145.385L778.224 78.6953C774.805 77.518 771.017 78.2784 768.317 80.6839L671.44 166.993C669.807 168.449 667.74 169.328 665.559 169.497L468.195 184.748C466.08 184.912 463.967 184.398 462.163 183.282L392.943 140.455C389.681 138.436 385.551 138.462 382.314 140.521L315.79 182.837C313.608 184.225 310.973 184.713 308.439 184.2L133.106 148.701C130.403 148.153 128.045 146.513 126.592 144.168L96.8664 96.2175C94.6992 92.7215 90.6124 90.9091 86.5663 91.6498L-145.618 134.155C-153.041 135.514 -159.237 128.475 -156.947 121.284Z" stroke="#306FB6" stroke-width="8"/>
</g>
</g>
<defs>
<filter id="filter0_d_54_1079" x="-165.435" y="-129.628" width="1334.04" height="326.407" filterUnits="userSpaceOnUse" color-interpolation-filters="sRGB">
<feFlood flood-opacity="0" result="BackgroundImageFix"/>
<feColorMatrix in="SourceAlpha" type="matrix" values="0 0 0 0 0 0 0 0 0 0 0 0 0 0 0 0 0 0 127 0" result="hardAlpha"/>
<feOffset dy="4"/>
<feGaussianBlur stdDeviation="2"/>
<feComposite in2="hardAlpha" operator="out"/>
<feColorMatrix type="matrix" values="0 0 0 0 0 0 0 0 0 0 0 0 0 0 0 0 0 0 0.25 0"/>
<feBlend mode="normal" in2="BackgroundImageFix" result="effect1_dropShadow_54_1079"/>
<feBlend mode="normal" in="SourceGraphic" in2="effect1_dropShadow_54_1079" result="shape"/>
</filter>
<clipPath id="clip0_54_1079">
<rect width="834" height="214" fill="white"/>
</clipPath>
</defs>
</svg>
