<svg width="1440" height="248" viewBox="0 0 1440 248" fill="none" xmlns="http://www.w3.org/2000/svg">
<g clip-path="url(#clip0_54_1138)">
<g filter="url(#filter0_d_54_1138)">
<path d="M-63.24 152.488L25.1882 -92.7404C26.5971 -96.6475 30.2744 -99.277 34.4271 -99.3468L1597.91 -125.645C1606.35 -125.787 1611.16 -116.068 1605.93 -109.449L1381.23 175.068C1378.68 178.297 1374.41 179.635 1370.47 178.438L1120.49 102.433C1117.36 101.482 1113.97 102.12 1111.4 104.141L986.424 202.454C984.845 203.697 982.927 204.435 980.922 204.572L727.847 221.84C726.304 221.945 724.756 221.691 723.328 221.097L629.476 182.075C626.938 181.02 624.078 181.056 621.567 182.175L534.984 220.75C533.155 221.565 531.125 221.812 529.154 221.459L303.666 181.147C301.067 180.683 298.758 179.21 297.241 177.05L258.098 121.295C255.897 118.16 252.099 116.558 248.318 117.169L-52.2372 165.752C-59.761 166.968 -65.8253 159.658 -63.24 152.488Z" fill="#FFD63C"/>
<path d="M-63.24 152.488L25.1882 -92.7404C26.5971 -96.6475 30.2744 -99.277 34.4271 -99.3468L1597.91 -125.645C1606.35 -125.787 1611.16 -116.068 1605.93 -109.449L1381.23 175.068C1378.68 178.297 1374.41 179.635 1370.47 178.438L1120.49 102.433C1117.36 101.482 1113.97 102.12 1111.4 104.141L986.424 202.454C984.845 203.697 982.927 204.435 980.922 204.572L727.847 221.84C726.304 221.945 724.756 221.691 723.328 221.097L629.476 182.075C626.938 181.02 624.078 181.056 621.567 182.175L534.984 220.75C533.155 221.565 531.125 221.812 529.154 221.459L303.666 181.147C301.067 180.683 298.758 179.21 297.241 177.05L258.098 121.295C255.897 118.16 252.099 116.558 248.318 117.169L-52.2372 165.752C-59.761 166.968 -65.8253 159.658 -63.24 152.488Z" stroke="#306FB6" stroke-width="8"/>
</g>
</g>
<defs>
<filter id="filter0_d_54_1138" x="-73.8516" y="-131.647" width="1691.96" height="367.51" filterUnits="userSpaceOnUse" color-interpolation-filters="sRGB">
<feFlood flood-opacity="0" result="BackgroundImageFix"/>
<feColorMatrix in="SourceAlpha" type="matrix" values="0 0 0 0 0 0 0 0 0 0 0 0 0 0 0 0 0 0 127 0" result="hardAlpha"/>
<feOffset dy="4"/>
<feGaussianBlur stdDeviation="3"/>
<feComposite in2="hardAlpha" operator="out"/>
<feColorMatrix type="matrix" values="0 0 0 0 0 0 0 0 0 0 0 0 0 0 0 0 0 0 0.25 0"/>
<feBlend mode="normal" in2="BackgroundImageFix" result="effect1_dropShadow_54_1138"/>
<feBlend mode="normal" in="SourceGraphic" in2="effect1_dropShadow_54_1138" result="shape"/>
</filter>
<clipPath id="clip0_54_1138">
<rect width="1440" height="248" fill="white"/>
</clipPath>
</defs>
</svg>
