<svg width="30" height="30" viewBox="0 0 30 30" fill="none" xmlns="http://www.w3.org/2000/svg">
<path d="M9.92397 3.06753C9.57247 3.41914 9.375 3.89597 9.375 4.39315C9.375 4.89034 9.57247 5.36716 9.92397 5.71878L19.2052 15L9.92397 24.2813C9.58243 24.6349 9.39344 25.1085 9.39771 25.6002C9.40198 26.0918 9.59917 26.5621 9.94681 26.9097C10.2945 27.2573 10.7647 27.4545 11.2563 27.4588C11.748 27.4631 12.2216 27.2741 12.5752 26.9325L23.1821 16.3257C23.5336 15.974 23.7311 15.4972 23.7311 15C23.7311 14.5028 23.5336 14.026 23.1821 13.6744L12.5752 3.06753C12.2236 2.71602 11.7468 2.51855 11.2496 2.51855C10.7524 2.51855 10.2756 2.71602 9.92397 3.06753Z" fill="white"/>
</svg>
