<svg width="30" height="30" viewBox="0 0 30 30" fill="none" xmlns="http://www.w3.org/2000/svg">
<path d="M26.2503 26.25L20.8215 20.8213M20.8215 20.8213C21.7501 19.8927 22.4867 18.7902 22.9893 17.5769C23.4918 16.3637 23.7505 15.0633 23.7505 13.75C23.7505 12.4368 23.4919 11.1364 22.9893 9.92308C22.4867 8.70979 21.7501 7.60737 20.8215 6.67876C19.8929 5.75015 18.7905 5.01354 17.5772 4.51098C16.3639 4.00842 15.0635 3.74976 13.7503 3.74976C12.437 3.74976 11.1366 4.00842 9.92332 4.51098C8.71004 5.01354 7.60762 5.75015 6.67901 6.67876C4.8036 8.55418 3.75 11.0978 3.75 13.75C3.75 16.4022 4.8036 18.9459 6.67901 20.8213C8.55442 22.6967 11.098 23.7503 13.7503 23.7503C16.4025 23.7503 18.9461 22.6967 20.8215 20.8213Z" stroke="black" stroke-width="2.5" stroke-linecap="round" stroke-linejoin="round"/>
</svg>
