<svg width="64" height="64" viewBox="0 0 64 64" fill="none" xmlns="http://www.w3.org/2000/svg">
<path d="M31.9909 4.71842C16.8519 4.78385 4.6992 17.012 4.78807 32.0902C4.87726 47.2074 17.0293 59.3174 32.0247 59.2327C47.1829 59.1468 59.3235 46.9919 59.2487 31.9762C59.1735 16.8571 46.97 4.65364 31.9909 4.71842ZM48.2982 48.4889C43.193 53.8151 34.5124 56.9144 25.8141 54.3421C16.7327 51.6569 11.0618 45.4964 9.25226 36.2093C7.72459 28.3685 10.0781 21.499 15.4954 15.7396L23.722 23.9714C19.2301 28.7402 19.7851 35.5472 23.2308 39.5352C24.9736 41.5524 27.1341 42.8796 29.7526 43.377C33.7653 44.1387 37.2692 43.0352 40.1663 40.361L48.2982 48.4889ZM32.1318 39.944C27.8196 40.028 24.1937 36.5322 24.1214 32.2217C24.0478 27.8327 27.4456 24.2197 31.7415 24.1191C36.2724 24.013 39.8896 27.4606 39.9541 31.9466C40.0166 36.2988 36.5351 39.8584 32.1318 39.944Z" fill="#306FB6"/>
<path d="M48.2983 48.4889L40.1665 40.361C37.2694 43.0352 33.7655 44.1387 29.7528 43.377C27.1343 42.8796 24.9738 41.5524 23.2306 39.5352C19.7853 35.5472 19.2303 28.7402 23.7222 23.9714L15.4956 15.7396C10.0783 21.499 7.72477 28.3685 9.25244 36.2093C11.062 45.4964 16.7329 51.6569 25.8143 54.3421C34.5129 56.9144 43.1932 53.8151 48.2983 48.4889Z" fill="white"/>
<path d="M32.132 39.944C36.5353 39.8584 40.0167 36.2988 39.9542 31.9466C39.8898 27.4606 36.2726 24.013 31.7417 24.1191C27.4458 24.2197 24.048 27.8327 24.1216 32.2217C24.1942 36.5322 27.8198 40.028 32.132 39.944Z" fill="white"/>
</svg>
