<svg width="64" height="64" viewBox="0 0 64 64" fill="none" xmlns="http://www.w3.org/2000/svg">
<path d="M32.0091 4.71842C47.1481 4.78385 59.3008 17.012 59.2119 32.0902C59.1227 47.2074 46.9707 59.3174 31.9753 59.2327C16.8171 59.1468 4.67645 46.9919 4.75132 31.9762C4.82652 16.8571 17.03 4.65364 32.0091 4.71842ZM15.7018 48.4889C20.807 53.8151 29.4876 56.9144 38.1859 54.3421C47.2673 51.6569 52.9382 45.4964 54.7477 36.2093C56.2754 28.3685 53.9219 21.499 48.5046 15.7396L40.278 23.9714C44.7699 28.7402 44.2149 35.5472 40.7692 39.5352C39.0264 41.5524 36.8659 42.8796 34.2474 43.377C30.2347 44.1387 26.7308 43.0352 23.8337 40.361L15.7018 48.4889ZM31.8682 39.944C36.1804 40.028 39.8063 36.5322 39.8786 32.2217C39.9522 27.8327 36.5544 24.2197 32.2585 24.1191C27.7276 24.013 24.1104 27.4606 24.0459 31.9466C23.9834 36.2988 27.4649 39.8584 31.8682 39.944Z" fill="#306FB6"/>
<path d="M15.7021 48.4889L23.834 40.361C26.7311 43.0352 30.235 44.1387 34.2477 43.377C36.8662 42.8796 39.0267 41.5524 40.7699 39.5352C44.2152 35.5472 44.7702 28.7402 40.2783 23.9714L48.5049 15.7396C53.9222 21.499 56.2757 28.3685 54.748 36.2093C52.9385 45.4964 47.2676 51.6569 38.1862 54.3421C29.4876 56.9144 20.8073 53.8151 15.7021 48.4889Z" fill="white"/>
<path d="M31.868 39.944C27.4647 39.8584 23.9833 36.2988 24.0458 31.9466C24.1102 27.4606 27.7274 24.013 32.2583 24.1191C36.5542 24.2197 39.952 27.8327 39.8784 32.2217C39.8058 36.5322 36.1802 40.028 31.868 39.944Z" fill="white"/>
</svg>
